
 ### #     #    #     #####    #     # ####### 
  #  ##   ##   # #   #     # # ##    # #       
  #  # # # #  #   #  #       # # #   # #       
  #  #  #  # #     # #  #### # #  #  # #####   
  #  #     # ####### #     # # #   # # #       
  #  #     # #     # #     # # #    ## #       
 ### #     # #     #  #####  # #     # ####### 


Another Fine Release Brought to you from - IMAGiNE 


******************************************************************************************************************** 

Gnomeo & Juliet 2011 TS XViD - IMAGiNE

********************************************************************************************************************



Ripper ...........:IMAGiNE IMDB Rating.......:5.4/10 

Video Codec.......:XVID Release Date......:20/02/11

Audio Codec.......:AC-3 Theatre Date......:11/02/11

Audio Bitrate.....:640 Runtime...........:1h 35mn

Subtitles.........:NIL Language..........:ENGLISH

Resolution........:720 x 304 IMDb URL.......... http://www.imdb.com/title/tt0377981/





DETAILS:



Video

ID : 0

Format : MPEG-4 Visual

Format profile : Advanced Simple@L5

Format settings, BVOP : Yes

Format settings, QPel : No

Format settings, GMC : No warppoints

Format settings, Matrix : Default (MPEG)

Muxing mode : Packed bitstream

Codec ID : XVID

Codec ID/Hint : XviD

Duration : 1h 14mn

Bit rate : 1 774 Kbps

Width : 688 pixels

Height : 384 pixels

Display aspect ratio : 16:9

Frame rate : 25.000 fps

Color space : YUV

Chroma subsampling : 4:2:0

Bit depth : 8 bits

Scan type : Progressive

Bits/(Pixel*Frame) : 0.269

Stream size : 944 MiB (93%)

Writing library : XviD 1.2.1 (UTC 2008-12-04)



Audio

ID : 1

Format : MPEG Audio

Format version : Version 1

Format profile : Layer 3

Mode : Joint stereo

Mode extension : MS Stereo

Codec ID : 55

Codec ID/Hint : MP3

Duration : 1h 14mn

Bit rate mode : Variable

Bit rate : 128 Kbps

Channel(s) : 2 channels

Sampling rate : 44.1 KHz

Stream size : 64.9 MiB (6%)

Alignment : Split accross interleaves

Interleave, duration : 40 ms (1.00 video frame)

Interleave, preload duration : 500 ms

Writing library : LAME3.92

Encoding settings : -m j -V 4 -q 2 -lowpass 17.5 --abr 128

SOURCES:



VIDEO: CiNEDUB...Thanks 

AUDIO: Thanks matey 



NOTES:



IMAGiNE bringing you another release..........Gnomeo & Juliet 2011







Here we are with a nice encode of this one for you all. Now for the video we just made a script

containing white balance,resize, rgb eq, sharpness, chroma, brightness, contrast ect. With the audio

it was just a matter of syncing it to the video.



Anyway enjoy folks ....





================================== 
http://thepiratebay.org/user/hiest
==================================





Screenshots:
 
http://www.grinshare.com/img/70KG1C.png
 
http://www.grinshare.com/img/JJUNGK.png
 
http://www.grinshare.com/img/D47KNV.png


 ### #     #    #     #####    #     # ####### 
  #  ##   ##   # #   #     # # ##    # #       
  #  # # # #  #   #  #       # # #   # #       
  #  #  #  # #     # #  #### # #  #  # #####   
  #  #     # ####### #     # # #   # # #       
  #  #     # #     # #     # # #    ## #       
 ### #     # #     #  #####  # #     # ####### 
